# xmcd
#
# Track frame offsets:
#	150
#	10800
#	21443
#	29986
#	38454
#	47897
#	56170
#	67765
#	78438
#	93393
#	102573
#	117431
#
# Disc length: 1797 seconds
#
# Revision: 1
# Processed by: cddbd v1.5.2PL0 Copyright (c) Steve Scherf et al.
# Submitted via: audiograbber 1.83.01
#
DISCID=9f07030c
DTITLE=Elvis - Elvis' Christmas Album
DYEAR=1957
DGENRE=Country
TTITLE0=Santa Claus Is Back In Town
TTITLE1=White Christmas
TTITLE2=Here Comes Santa Claus (Right Down Santa Claus Lane
TTITLE3=I'll Be Home For Christmas
TTITLE4=Blue Christmas
TTITLE5=Santa Bring My Baby Back (To Me)
TTITLE6=Oh Little Town Of Bethlehem
TTITLE7=Silent Night
TTITLE8=(There'll Be) Peace In The Valley (For Me)
TTITLE9=I Believe
TTITLE10=Take My Hand, Precious Lord
TTITLE11=It Is No Secret (What God Can Do)
EXTD=This CD was created from one of my LP's
EXTT0=
EXTT1=
EXTT2=
EXTT3=
EXTT4=
EXTT5=
EXTT6=
EXTT7=
EXTT8=
EXTT9=
EXTT10=
EXTT11=
PLAYORDER=
